# Blender 4.4.3
# www.blender.org
mtllib Shotgun.mtl
o Cube
v 1.538513 -0.257040 0.000000
v 1.170836 -0.630612 0.000000
v 0.646693 -0.634780 0.000000
v 0.636631 0.630612 0.000000
v 1.160773 0.634780 0.000000
v 1.824540 0.390018 0.000000
v 1.279058 0.926893 0.000000
v 0.513715 0.920807 0.000000
v 1.293751 -0.920807 0.000000
v 1.830627 -0.375325 0.000000
v 0.273121 -0.267102 0.000000
v 0.268953 0.257040 0.000000
v 1.534345 0.267102 0.000000
v 1.830627 -0.375325 -7.452212
v 1.538513 -0.257040 -7.452212
v 1.170836 -0.630612 -7.452212
v 1.293751 -0.920807 -7.452212
v 0.646694 -0.634780 -7.452212
v 0.528409 -0.926893 -7.452212
v 1.534345 0.267103 -7.452212
v 0.273122 -0.267102 -7.452212
v 1.824541 0.390018 -7.452212
v 0.636631 0.630612 -7.452212
v 1.160774 0.634780 -7.452212
v 0.268954 0.257040 -7.452212
v 1.279058 0.926894 -7.452212
v 0.513716 0.920807 -7.452212
v -0.023160 0.375325 -7.452212
v -0.017074 -0.390018 -7.452212
v -0.000000 -0.921695 2.000000
v -0.000000 0.072257 2.000000
v 0.310865 -0.921695 2.000000
v 0.310865 0.072257 2.000000
v -0.000000 0.944303 0.536993
v 0.000000 0.386477 0.000000
v 1.621333 0.942755 0.496345
v 0.492785 -0.921695 0.000000
v -0.000000 -0.921695 0.492785
v 0.000000 -0.428910 0.000000
v 1.638238 -0.921695 0.455435
v 0.310864 0.072257 2.392916
v -0.000000 0.072257 2.392916
v 0.310864 0.068501 2.470345
v -0.000000 0.068501 2.470345
v 0.310864 0.058595 2.547228
v -0.000000 0.058595 2.547228
v 0.310864 0.042601 2.623080
v -0.000000 0.042601 2.623080
v 0.310864 0.020622 2.697418
v -0.000000 0.020622 2.697418
v 0.310864 -0.007205 2.769771
v -0.000000 -0.007205 2.769771
v 0.310864 -0.040701 2.839680
v -0.000000 -0.040701 2.839680
v 0.310864 -0.079655 2.906702
v -0.000000 -0.079655 2.906702
v 0.310864 -0.123820 2.970410
v -0.000000 -0.123820 2.970410
v 0.310864 -0.172915 3.030401
v -0.000000 -0.172915 3.030401
v 0.310864 -0.226628 3.086295
v -0.000000 -0.921459 2.375557
v -0.000000 -0.226628 3.086295
v 0.310864 -0.284620 3.137737
v -0.000000 -0.284620 3.137737
v 0.310864 -0.346522 3.184400
v 0.310865 -0.919778 2.372417
v -0.000000 -0.346522 3.184400
v 0.667597 -2.388832 4.626263
v 0.667597 -2.962088 3.814280
v -0.000000 -2.962088 3.814280
v -0.000000 -2.388832 4.626263
v 0.155432 -0.921695 2.000000
v 0.155432 0.072257 2.000000
v 0.913215 0.923859 0.000000
v 0.810667 0.943529 0.516669
v 0.155432 0.072257 2.392916
v 0.155432 0.068501 2.470345
v 0.155432 0.058595 2.547228
v 0.155432 0.042601 2.623080
v 0.155432 0.020622 2.697418
v 0.155432 -0.007205 2.769771
v 0.155432 -0.040701 2.839680
v 0.155432 -0.079655 2.906702
v 0.155432 -0.123820 2.970410
v 0.155432 -0.172915 3.030401
v 0.155432 -0.226628 3.086295
v 0.155432 -0.920681 2.373954
v 0.155432 -0.284620 3.137737
v 0.155432 -0.346522 3.184400
v 0.333798 -2.962088 3.814280
v 0.333798 -2.388832 4.626263
v -0.000000 -0.550753 3.328586
v 0.346538 -0.550753 3.328586
v 0.346538 -1.124009 2.516604
v -0.000000 -1.124009 2.516604
v 0.173269 -1.124009 2.516604
v 0.173269 -0.550753 3.328586
v -0.000000 -0.661037 3.406447
v -0.000000 -1.234294 2.594464
v 0.182901 -1.234294 2.594464
v 0.182901 -0.661037 3.406447
v 0.365801 -0.661037 3.406447
v 0.365801 -1.234294 2.594464
v -0.000000 0.072257 2.117875
v 0.310865 0.072257 2.117875
v 0.310865 -0.921695 2.117875
v -0.000000 -0.921695 2.117875
v 0.155432 -0.921695 2.117875
v 0.155432 0.072257 2.117875
v -0.000000 -1.225796 2.210907
v 0.173269 -1.225796 2.210907
v -0.000000 -1.366465 2.150787
v 0.182901 -1.366465 2.150787
v -1.170836 -0.630612 -0.000000
v -0.646693 -0.634780 -0.000000
v -0.268953 0.257040 -0.000000
v -0.636631 0.630612 -0.000000
v -1.824540 0.390018 -0.000000
v -1.538513 -0.257040 -0.000000
v -0.273121 -0.267102 -0.000000
v -1.160773 0.634780 -0.000000
v -1.534345 0.267102 -0.000000
v -1.830626 -0.375325 -7.452212
v -1.538513 -0.257040 -7.452212
v -1.170835 -0.630612 -7.452212
v -1.293751 -0.920807 -7.452212
v -0.646693 -0.634780 -7.452212
v -0.528408 -0.926893 -7.452212
v -1.534345 0.267103 -7.452212
v -0.273121 -0.267102 -7.452212
v -1.824540 0.390018 -7.452212
v -0.636630 0.630612 -7.452212
v -1.160773 0.634780 -7.452212
v -0.268953 0.257040 -7.452212
v -1.279058 0.926894 -7.452212
v -0.513715 0.920807 -7.452212
v -0.310865 -0.921695 2.000000
v -0.310865 0.072257 2.000000
v -0.537382 0.923859 -0.000000
v -1.621333 0.942755 0.496344
v -1.289048 0.923859 -0.000000
v -0.492785 -0.921695 -0.000000
v -1.826430 -0.428910 -0.000000
v -1.638238 -0.921695 0.455435
v -1.333645 -0.921695 -0.000000
v -0.310865 0.072257 2.392916
v -0.310865 0.068501 2.470345
v -0.310865 0.058595 2.547228
v -0.310865 0.042601 2.623080
v -0.310865 0.020622 2.697418
v -0.310865 -0.007205 2.769771
v -0.310865 -0.040701 2.839680
v -0.310865 -0.079655 2.906702
v -0.310865 -0.123820 2.970410
v -0.310865 -0.172915 3.030401
v -0.310865 -0.226628 3.086295
v -0.310865 -0.921459 2.375557
v -0.310865 -0.284620 3.137737
v -0.310865 -0.346522 3.184400
v -0.667597 -2.388832 4.626263
v -0.667597 -2.962088 3.814280
v -0.155432 -0.921695 2.000000
v -0.155432 0.072257 2.000000
v -0.913215 0.923859 -0.000000
v -0.810667 0.943529 0.516669
v -0.155432 0.072257 2.392916
v -0.155432 0.068501 2.470345
v -0.155432 0.058595 2.547228
v -0.155432 0.042601 2.623080
v -0.155432 0.020622 2.697418
v -0.155432 -0.007205 2.769771
v -0.155432 -0.040701 2.839680
v -0.155432 -0.079655 2.906702
v -0.155432 -0.123820 2.970410
v -0.155432 -0.172915 3.030401
v -0.155432 -0.226628 3.086295
v -0.155432 -0.284620 3.137737
v -0.155432 -0.919778 2.372417
v -0.155432 -0.346522 3.184400
v -0.333799 -2.962088 3.814280
v -0.333799 -2.388832 4.626263
v -0.346538 -0.550753 3.328586
v -0.346538 -1.124009 2.516604
v -0.173269 -1.124009 2.516604
v -0.173269 -0.550753 3.328586
v -0.182901 -1.234294 2.594464
v -0.182901 -0.661037 3.406447
v -0.365802 -0.661037 3.406447
v -0.365802 -1.234294 2.594464
v -0.310865 0.072257 2.117875
v -0.310865 -0.921695 2.117875
v -0.155432 -0.921695 2.117875
v -0.155432 0.072257 2.117875
v -0.173269 -1.225796 2.210907
v -0.182901 -1.366465 2.150787
vn 0.0080 -1.0000 -0.0000
vn -1.0000 -0.0039 0.0027
vn -0.7167 0.6973 0.0006
vn 0.7015 0.7127 -0.0000
vn -0.0080 1.0000 -0.0000
vn -1.0000 -0.0080 -0.0000
vn 1.0000 0.0080 -0.0000
vn -0.0000 -0.0000 -1.0000
vn -0.7042 -0.7100 -0.0025
vn -0.7127 0.7015 -0.0000
vn 0.0045 -1.0000 0.0004
vn 0.7127 -0.7015 -0.0000
vn -0.7015 -0.7127 -0.0000
vn -0.0000 -0.0000 1.0000
vn 0.0114 0.8599 0.5104
vn 0.0114 0.8601 0.5100
vn 0.0114 0.8595 0.5111
vn -0.0000 1.0000 -0.0000
vn -0.0000 0.9997 0.0242
vn 0.7947 -0.0036 0.6070
vn -1.0000 -0.0000 -0.0000
vn -0.5850 0.5625 -0.5843
vn 0.6258 0.6358 -0.4518
vn -0.5774 -0.5774 -0.5774
vn 0.6270 -0.6171 -0.4755
vn 0.0001 -1.0000 -0.0002
vn 0.0001 -1.0000 -0.0001
vn -0.0026 0.9992 -0.0390
vn -0.0025 0.9994 -0.0345
vn -0.0025 0.9993 -0.0380
vn 1.0000 -0.0000 -0.0000
vn 0.9985 0.0443 -0.0313
vn 0.0018 -1.0000 0.0027
vn 0.0015 -1.0000 0.0029
vn 0.0029 -1.0000 0.0057
vn 0.0027 -1.0000 0.0041
vn -0.0000 0.9961 0.0882
vn -0.0000 0.9859 0.1672
vn -0.0000 0.9695 0.2451
vn -0.0000 0.9469 0.3215
vn -0.0000 0.9183 0.3958
vn -0.0000 0.8839 0.4677
vn -0.0000 0.8439 0.5365
vn -0.0000 0.7985 0.6020
vn -0.0000 0.7481 0.6636
vn -0.0000 0.6929 0.7211
vn -0.0000 0.6333 0.7739
vn -0.0000 0.5767 0.8169
vn -0.0000 0.5894 0.8078
vn 0.9974 0.0584 -0.0412
vn -0.0000 -0.8169 0.5767
vn 0.9900 0.1154 -0.0815
vn -0.0000 -0.5767 -0.8169
vn -0.0000 0.5889 0.8082
vn 0.0025 -1.0000 0.0024
vn -0.0026 0.9991 -0.0424
vn 0.0114 0.8605 0.5093
vn -0.0026 -0.5730 -0.8196
vn -0.0024 -0.5743 -0.8186
vn -0.0016 -0.5752 -0.8180
vn -0.0022 -0.5757 -0.8176
vn -0.0010 -0.5763 -0.8172
vn -0.0000 -1.0000 -0.0000
vn -0.0000 -0.9488 0.3159
vn -0.0000 -0.2925 -0.9563
vn -0.0000 0.9584 -0.2855
vn -0.0000 0.3211 0.9471
vn -0.9981 -0.0620 -0.0050
vn -0.9976 -0.0690 0.0105
vn -0.9976 -0.0682 0.0087
vn -0.9969 -0.0749 0.0234
vn -0.0080 -1.0000 -0.0000
vn 0.7253 0.6885 -0.0006
vn -0.7015 0.7127 -0.0000
vn 0.0040 1.0000 -0.0000
vn 1.0000 -0.0080 -0.0000
vn -0.7037 0.7105 -0.0003
vn -1.0000 0.0050 0.0003
vn 0.7159 -0.6982 -0.0041
vn -1.0000 0.0080 -0.0000
vn 0.7127 0.7015 -0.0000
vn -0.0038 -1.0000 0.0003
vn -0.7127 -0.7015 -0.0000
vn 0.0080 1.0000 -0.0000
vn -0.7100 -0.7042 -0.0043
vn 0.7015 -0.7127 -0.0000
vn -0.0114 0.8599 0.5104
vn -0.0114 0.8595 0.5111
vn -0.0114 0.8601 0.5100
vn -0.7956 -0.0038 0.6058
vn 0.5699 0.5699 -0.5920
vn -0.6316 0.6335 -0.4469
vn 0.5774 -0.5774 -0.5774
vn -0.6392 -0.6392 -0.4275
vn -0.0000 0.9993 -0.0380
vn -0.9985 0.0448 -0.0317
vn -0.0000 -1.0000 0.0028
vn -0.0000 -1.0000 0.0042
vn 0.0055 -1.0000 0.0042
vn 0.0027 -1.0000 0.0021
vn -0.9974 0.0586 -0.0415
vn -0.9900 0.1154 -0.0815
vn -0.0055 -1.0000 0.0042
vn -0.0114 0.8605 0.5093
vn 0.0049 -0.5743 -0.8187
vn -0.0002 -0.5749 -0.8183
vn 0.0002 -0.5740 -0.8189
vn -0.0022 -0.5754 -0.8179
vn -0.0049 -0.5737 -0.8191
vn -0.9899 0.1157 -0.0818
vn 0.9981 -0.0620 -0.0050
vn 0.9976 -0.0682 0.0087
vn 0.9976 -0.0690 0.0105
vn 0.9969 -0.0749 0.0234
vt 0.772249 0.550923
vt 0.798559 0.550931
vt 0.798559 0.924690
vt 0.772249 0.924682
vt 0.399099 0.379925
vt 0.359196 0.370817
vt 0.443000 0.006268
vt 0.480452 0.014815
vt 0.332950 0.364682
vt 0.416203 0.000000
vt 0.689796 0.000192
vt 0.708436 0.000001
vt 0.708436 0.374051
vt 0.689796 0.374242
vt 0.929947 0.734816
vt 0.891530 0.734760
vt 0.891530 0.367351
vt 0.929947 0.367407
vt 0.865222 0.367452
vt 0.891530 0.367450
vt 0.891530 0.741514
vt 0.865222 0.741516
vt 0.320821 0.368086
vt 0.294086 0.373202
vt 0.227558 0.005116
vt 0.254293 -0.000000
vt 0.256280 0.380034
vt 0.189752 0.011948
vt 0.735374 0.183877
vt 0.773774 0.183572
vt 0.767839 0.198235
vt 0.741541 0.198444
vt 0.708742 0.249675
vt 0.708436 0.211258
vt 0.723093 0.217196
vt 0.723302 0.243505
vt 0.801143 0.210521
vt 0.786583 0.216691
vt 0.801448 0.248938
vt 0.786792 0.243000
vt 0.774511 0.276319
vt 0.736111 0.276624
vt 0.742046 0.261961
vt 0.768344 0.261752
vt 0.537948 0.119144
vt 0.562674 0.118136
vt 0.563525 0.491815
vt 0.536154 0.492914
vt 0.663485 0.000192
vt 0.663485 0.374242
vt 0.846375 0.367351
vt 0.846375 0.741416
vt 0.497743 0.119143
vt 0.497737 0.492901
vt 0.644917 -0.000000
vt 0.644917 0.374050
vt 0.242336 0.993257
vt 0.216026 0.993218
vt 0.216026 0.625809
vt 0.242336 0.625848
vt 0.229550 0.384581
vt 0.163022 0.016494
vt 0.753505 0.551676
vt 0.753505 0.925435
vt 0.735773 0.367351
vt 0.774170 0.367614
vt 0.768020 0.382188
vt 0.741724 0.382008
vt 0.801136 0.394965
vt 0.786487 0.400919
vt 0.708436 0.394331
vt 0.723002 0.400484
vt 0.708436 0.434536
vt 0.722822 0.426794
vt 0.733187 0.459244
vt 0.741289 0.445526
vt 0.774094 0.459199
vt 0.767585 0.445706
vt 0.800873 0.433383
vt 0.786307 0.427229
vt 0.554057 0.599564
vt 0.521144 0.518224
vt 0.561836 0.519210
vt 0.561859 0.599563
vt 0.554058 0.605376
vt 0.561861 0.605374
vt 0.561863 0.618934
vt 0.554061 0.618936
vt 0.233435 0.407289
vt 0.325899 0.392665
vt 0.296845 0.473920
vt 0.247750 0.482788
vt 0.400871 0.483302
vt 0.352230 0.472199
vt 0.325899 0.390865
vt 0.417709 0.409545
vt 0.801141 0.067186
vt 0.776387 0.091893
vt 0.735475 0.091845
vt 0.708696 0.066027
vt 0.708567 0.045973
vt 0.708436 0.027609
vt 0.735406 0.000260
vt 0.773807 0.000000
vt 0.801144 0.026981
vt 0.801838 0.091923
vt 0.480452 0.096302
vt 0.547082 0.018836
vt 0.554884 0.018836
vt 0.562686 0.018836
vt 0.562685 0.094429
vt 0.480452 0.517239
vt 0.497628 0.492914
vt 0.515992 0.492938
vt 0.347841 0.491427
vt 0.396663 0.501678
vt 0.347159 0.495258
vt 0.248802 0.488610
vt 0.297898 0.479742
vt 0.300353 0.493327
vt 0.251169 0.501165
vt 0.350913 0.477968
vt 0.399554 0.489070
vt 0.554884 0.012924
vt 0.547082 0.012924
vt 0.547082 0.000154
vt 0.554884 0.000079
vt 0.554062 0.622789
vt 0.561864 0.622787
vt 0.561865 0.626671
vt 0.554063 0.626673
vt 0.300859 0.497185
vt 0.561866 0.630562
vt 0.554063 0.630563
vt 0.301056 0.501071
vt 0.346785 0.499131
vt 0.346721 0.503022
vt 0.346966 0.506905
vt 0.300943 0.504960
vt 0.554064 0.634436
vt 0.561866 0.634434
vt 0.561867 0.638263
vt 0.554065 0.638265
vt 0.300521 0.508828
vt 0.299792 0.512650
vt 0.298762 0.516402
vt 0.347519 0.510757
vt 0.348377 0.514552
vt 0.349535 0.518267
vt 0.561868 0.642026
vt 0.554066 0.642028
vt 0.554067 0.645699
vt 0.561870 0.645698
vt 0.561871 0.649255
vt 0.554069 0.649257
vt 0.297436 0.520060
vt 0.350984 0.521878
vt 0.352717 0.525362
vt 0.295823 0.523600
vt 0.561872 0.652676
vt 0.554070 0.652677
vt 0.293934 0.527002
vt 0.554071 0.655940
vt 0.561873 0.655938
vt 0.561874 0.659021
vt 0.554072 0.659023
vt 0.291780 0.530241
vt 0.354721 0.528697
vt 0.356984 0.531862
vt 0.359492 0.534837
vt 0.289375 0.533300
vt 0.266666 0.645129
vt 0.275847 0.645129
vt 0.275847 0.733788
vt 0.259091 0.733788
vt 0.268045 0.625809
vt 0.275847 0.625809
vt 0.275847 0.628991
vt 0.268045 0.628991
vt 0.286734 0.536157
vt 0.067021 0.642794
vt 0.108919 0.642784
vt 0.108919 0.659539
vt 0.067021 0.659549
vt 0.237595 0.514972
vt 0.273159 0.549963
vt 0.198586 0.625809
vt 0.163022 0.590818
vt 0.372403 0.549216
vt 0.409527 0.515885
vt 0.480452 0.594877
vt 0.443327 0.628209
vt 0.042691 0.642136
vt 0.051872 0.642136
vt 0.067021 0.730625
vt 0.050266 0.730625
vt 0.033511 0.642136
vt 0.033511 0.730625
vt 0.067021 0.626039
vt 0.108919 0.626028
vt 0.260243 0.625809
vt 0.260243 0.628991
vt 0.257485 0.645129
vt 0.242336 0.733788
vt 0.546268 0.652679
vt 0.546269 0.655941
vt 0.546270 0.659024
vt 0.546266 0.649258
vt 0.546264 0.642029
vt 0.546265 0.645701
vt 0.546263 0.638267
vt 0.546261 0.630565
vt 0.546262 0.634437
vt 0.546261 0.626675
vt 0.546259 0.618938
vt 0.546260 0.622791
vt 0.562686 0.012924
vt 0.562686 0.000000
vt 0.536045 0.492962
vt 0.546256 0.605378
vt 0.546255 0.599566
vt 0.267149 0.639470
vt 0.258452 0.639470
vt 0.033511 0.626117
vt 0.041313 0.626076
vt 0.042208 0.636488
vt 0.033511 0.636488
vt 0.049115 0.626028
vt 0.050905 0.636488
vt 0.405000 0.510843
vt 0.367876 0.544174
vt 0.277919 0.545122
vt 0.242355 0.510131
vt 0.275847 0.639470
vt 0.324898 0.625809
vt 0.324898 0.634507
vt 0.309357 0.634509
vt 0.309357 0.625811
vt 0.362623 0.629105
vt 0.378018 0.628209
vt 0.378018 0.636907
vt 0.362623 0.636907
vt 0.353442 0.648838
vt 0.344261 0.648839
vt 0.344261 0.628211
vt 0.353442 0.628210
vt 0.335080 0.650767
vt 0.325899 0.650767
vt 0.327278 0.628209
vt 0.335080 0.628209
vt 0.132141 0.626028
vt 0.132141 0.649592
vt 0.127015 0.643876
vt 0.126537 0.627927
vt 0.110842 0.643961
vt 0.108919 0.650454
vt 0.734746 0.550923
vt 0.734746 0.924682
vt 0.708436 0.924691
vt 0.708436 0.550932
vt 0.996301 0.394372
vt 0.995988 0.768434
vt 0.968364 0.768621
vt 0.969061 0.394584
vt 0.663469 0.374344
vt 0.663469 0.748408
vt 0.644917 0.748306
vt 0.644917 0.374242
vt 0.930634 0.734739
vt 0.929947 0.367358
vt 0.968364 0.367351
vt 0.968364 0.734789
vt 0.827442 0.367539
vt 0.827442 0.741589
vt 0.801136 0.741584
vt 0.801136 0.367535
vt 0.005301 0.368117
vt 0.071755 0.000000
vt 0.098385 0.004970
vt 0.031779 0.373056
vt 0.136189 0.011811
vt 0.072229 0.380375
vt 0.735373 0.367046
vt 0.741541 0.352479
vt 0.767839 0.352689
vt 0.773774 0.367351
vt 0.708742 0.301248
vt 0.723302 0.307418
vt 0.723093 0.333728
vt 0.708436 0.339665
vt 0.786583 0.334233
vt 0.801143 0.340403
vt 0.786792 0.307923
vt 0.801448 0.301986
vt 0.768344 0.289171
vt 0.742046 0.288962
vt 0.165226 0.999871
vt 0.163022 0.625809
vt 0.189717 0.625936
vt 0.189717 1.000000
vt 0.689780 0.374344
vt 0.689780 0.748409
vt 0.846375 0.367351
vt 0.846375 0.741401
vt 0.629627 0.119144
vt 0.627619 0.492901
vt 0.589202 0.492914
vt 0.587420 0.119144
vt 0.708436 0.374243
vt 0.708436 0.748307
vt 0.189717 0.993259
vt 0.189717 0.625850
vt 0.216026 0.625809
vt 0.216026 0.993219
vt 0.163022 0.016516
vt 0.096468 0.384623
vt 0.753505 0.551675
vt 0.753505 0.925434
vt 0.733288 0.550923
vt 0.741895 0.536461
vt 0.768191 0.536223
vt 0.774373 0.550783
vt 0.786616 0.517451
vt 0.801126 0.523874
vt 0.708538 0.526215
vt 0.723132 0.518026
vt 0.708491 0.484007
vt 0.722894 0.491717
vt 0.741320 0.472945
vt 0.767615 0.472706
vt 0.801084 0.486143
vt 0.786378 0.491141
vt 0.569661 0.599561
vt 0.602528 0.518206
vt 0.569663 0.605372
vt 0.569665 0.618933
vt 0.092460 0.407215
vt 0.078382 0.483086
vt 0.029288 0.474204
vt -0.000000 0.392569
vt 0.968364 0.367351
vt 0.801082 0.116658
vt 0.801033 0.158865
vt 0.776278 0.183572
vt 0.735189 0.183429
vt 0.708436 0.156517
vt 0.708459 0.137652
vt 0.708481 0.118787
vt 0.570488 0.018836
vt 0.578290 0.018836
vt 0.644917 0.096302
vt 0.607671 0.492918
vt 0.626536 0.492914
vt 0.643220 0.517202
vt 0.077329 0.488908
vt 0.075014 0.501634
vt 0.025776 0.493611
vt 0.028234 0.480026
vt 0.570488 0.012924
vt 0.570488 0.000154
vt 0.578290 0.000000
vt 0.578290 0.012924
vt 0.569666 0.622785
vt 0.569667 0.626669
vt 0.025270 0.497469
vt 0.569668 0.630560
vt 0.025072 0.501355
vt 0.025184 0.505245
vt 0.569669 0.634432
vt 0.569669 0.638262
vt 0.025605 0.509113
vt 0.027362 0.516688
vt 0.026333 0.512935
vt 0.569670 0.642024
vt 0.569672 0.645696
vt 0.569673 0.649253
vt 0.028687 0.520346
vt 0.030300 0.523887
vt 0.569674 0.652674
vt 0.032188 0.527289
vt 0.569675 0.655936
vt 0.569676 0.659019
vt 0.034342 0.530530
vt 0.036746 0.533589
vt 0.285028 0.645129
vt 0.292602 0.733788
vt 0.283649 0.625809
vt 0.283649 0.628991
vt 0.039387 0.536447
vt 0.067021 0.676305
vt 0.108919 0.676294
vt 0.088521 0.515259
vt 0.163022 0.591045
vt 0.127450 0.626028
vt 0.052949 0.550243
vt 0.024330 0.642136
vt 0.016755 0.730625
vt 0.000000 0.730625
vt 0.015149 0.642136
vt 0.067021 0.693060
vt 0.108919 0.693049
vt 0.291451 0.625809
vt 0.291451 0.628991
vt 0.294208 0.645129
vt 0.309357 0.733788
vt 0.577476 0.652672
vt 0.577477 0.655934
vt 0.577478 0.659018
vt 0.577475 0.649252
vt 0.577473 0.642022
vt 0.577474 0.645694
vt 0.577472 0.638260
vt 0.577470 0.630558
vt 0.577471 0.634430
vt 0.577469 0.626668
vt 0.577467 0.618931
vt 0.577468 0.622784
vt 0.588806 0.492922
vt 0.577465 0.605371
vt 0.577464 0.599559
vt 0.293241 0.639470
vt 0.284544 0.639470
vt 0.024813 0.636488
vt 0.025709 0.626028
vt 0.016116 0.636488
vt 0.017906 0.626117
vt 0.083765 0.510422
vt 0.048193 0.545405
vt 0.324898 0.643204
vt 0.309357 0.643206
vt 0.362623 0.644709
vt 0.378018 0.645604
vt 0.362623 0.628209
vt 0.362623 0.648837
vt 0.342882 0.628209
vt 0.344261 0.650767
vt 0.132141 0.626028
vt 0.137745 0.627925
vt 0.137266 0.643869
vt 0.132141 0.649583
vt 0.153439 0.643949
vt 0.155362 0.650439
s 1
usemtl Material
f 5/1/1 4/2/1 23/3/1 24/4/1
f 39/5/2 35/6/2 28/7/2 29/8/2
f 35/6/3 8/9/3 27/10/3 28/7/3
f 11/11/4 3/12/4 18/13/4 21/14/4
f 8/15/5 7/16/5 26/17/5 27/18/5
f 1/19/6 13/20/6 20/21/6 15/22/6
f 7/23/4 6/24/4 22/25/4 26/26/4
f 6/24/7 10/27/7 14/28/7 22/25/7
f 22/29/8 14/30/8 15/31/8 20/32/8
f 27/33/8 26/34/8 24/35/8 23/36/8
f 14/30/8 17/37/8 16/38/8 15/31/8
f 17/37/8 19/39/8 18/40/8 16/38/8
f 29/41/8 28/42/8 25/43/8 21/44/8
f 19/39/8 29/41/8 21/44/8 18/40/8
f 28/42/8 27/33/8 23/36/8 25/43/8
f 26/34/8 22/29/8 20/32/8 24/35/8
f 37/45/9 39/46/9 29/47/9 19/48/9
f 12/49/7 11/11/7 21/14/7 25/50/7
f 2/51/10 1/19/10 15/22/10 16/52/10
f 9/53/11 37/45/11 19/48/11 17/54/11
f 4/55/12 12/49/12 25/50/12 23/56/12
f 3/57/5 2/58/5 16/59/5 18/60/5
f 10/27/12 9/61/12 17/62/12 14/28/12
f 13/63/13 5/1/13 24/4/13 20/64/13
f 10/65/14 6/66/14 13/67/14 1/68/14
f 6/66/14 7/69/14 5/70/14 13/67/14
f 9/71/14 10/65/14 1/68/14 2/72/14
f 37/73/14 9/71/14 2/72/14 3/74/14
f 39/75/14 37/73/14 3/74/14 11/76/14
f 35/77/14 39/75/14 11/76/14 12/78/14
f 8/79/14 35/77/14 12/78/14 4/80/14
f 7/69/14 8/79/14 4/80/14 5/70/14
f 1/68/14 13/67/14 5/70/14 4/80/14 12/78/14 11/76/14 3/74/14 2/72/14
f 74/81/15 76/82/16 34/83/17 31/84/17
f 110/85/18 105/86/18 42/87/19 77/88/19
f 40/89/20 10/27/20 6/24/20 36/90/20 33/91/20 32/92/20
f 30/93/21 31/94/21 34/95/21 35/6/21 39/5/21 38/96/21
f 34/95/22 8/9/22 35/6/22
f 36/90/23 6/24/23 7/23/23
f 37/97/8 39/98/8 35/99/8 8/100/8 75/101/8 7/102/8 6/103/8 10/104/8 9/105/8
f 37/97/24 38/106/24 39/98/24
f 10/27/25 40/89/25 9/61/25
f 9/53/26 40/107/26 32/108/27 73/109/26 30/110/26 38/111/26 37/45/26
f 76/82/28 36/112/29 7/113/29 75/114/30
f 42/115/21 62/116/21 44/117/21
f 107/118/31 106/119/31 41/120/31 67/121/32
f 105/122/21 108/123/21 62/116/21 42/115/21
f 109/124/33 107/125/34 67/126/35 88/127/36
f 78/128/37 44/129/37 46/130/38 79/131/38
f 77/88/19 42/87/19 44/129/37 78/128/37
f 67/121/32 41/120/31 43/132/31
f 79/131/38 46/130/38 48/133/39 80/134/39
f 67/121/32 43/132/31 45/135/31
f 44/117/21 62/116/21 46/136/21
f 48/137/21 62/116/21 50/138/21
f 67/121/32 45/135/31 47/139/31
f 46/136/21 62/116/21 48/137/21
f 81/140/40 50/141/40 52/142/41 82/143/41
f 80/134/39 48/133/39 50/141/40 81/140/40
f 67/121/32 47/139/31 49/144/31
f 67/121/32 51/145/31 53/146/31
f 67/121/32 49/144/31 51/145/31
f 50/138/21 62/116/21 52/147/21
f 54/148/21 62/116/21 56/149/21
f 52/147/21 62/116/21 54/148/21
f 82/143/41 52/142/41 54/150/42 83/151/42
f 84/152/43 56/153/43 58/154/44 85/155/44
f 83/151/42 54/150/42 56/153/43 84/152/43
f 67/121/32 53/146/31 55/156/31
f 58/157/21 62/116/21 60/158/21
f 67/121/32 55/156/31 57/159/31
f 56/149/21 62/116/21 58/157/21
f 85/155/44 58/154/44 60/160/45 86/161/45
f 67/121/32 57/159/31 59/162/31
f 87/163/46 63/164/46 65/165/47 89/166/47
f 86/161/45 60/160/45 63/164/46 87/163/46
f 67/121/32 59/162/31 61/167/31
f 60/158/21 62/116/21 63/168/21
f 65/169/21 62/116/21 68/170/21
f 67/121/32 61/167/31 64/171/31
f 63/168/21 62/116/21 65/169/21
f 102/172/48 99/173/48 72/174/48 92/175/48
f 89/176/47 65/177/47 68/178/49 90/179/49
f 67/121/32 64/171/31 66/180/50
f 91/181/51 92/182/51 72/183/51 71/184/51
f 104/185/52 103/186/52 69/187/52 70/188/52
f 99/189/21 100/190/21 71/191/21 72/192/21
f 101/193/53 104/194/53 70/195/53 91/196/53
f 100/197/53 101/193/53 91/196/53 71/198/53
f 70/199/51 69/200/51 92/182/51 91/181/51
f 64/201/47 89/176/47 90/179/49 66/202/54
f 103/203/48 102/172/48 92/175/48 69/204/48
f 59/205/45 86/161/45 87/163/46 61/206/46
f 61/206/46 87/163/46 89/166/47 64/207/47
f 57/208/44 85/155/44 86/161/45 59/205/45
f 53/209/42 83/151/42 84/152/43 55/210/43
f 55/210/43 84/152/43 85/155/44 57/208/44
f 51/211/41 82/143/41 83/151/42 53/209/42
f 47/212/39 80/134/39 81/140/40 49/213/40
f 49/213/40 81/140/40 82/143/41 51/211/41
f 45/214/38 79/131/38 80/134/39 47/212/39
f 41/215/19 77/88/19 78/128/37 43/216/37
f 43/216/37 78/128/37 79/131/38 45/214/38
f 108/217/55 109/124/33 88/127/36 62/218/55
f 34/83/56 76/82/28 75/114/30 8/219/56
f 106/220/18 110/85/18 77/88/19 41/215/19
f 33/221/57 36/112/57 76/82/16 74/81/15
f 66/202/54 90/179/49 98/222/48 94/223/48
f 62/224/58 88/225/59 97/226/60 96/227/58
f 88/225/59 67/228/61 95/229/62 97/226/60
f 68/170/21 62/116/21 96/230/21 93/231/21
f 67/121/32 66/180/50 94/232/52 95/233/52
f 90/179/49 68/178/49 93/234/48 98/222/48
f 94/223/48 98/222/48 102/172/48 103/203/48
f 96/227/53 97/226/53 101/193/53 100/197/53
f 97/226/60 95/229/62 104/194/53 101/193/53
f 93/231/21 96/230/21 100/190/21 99/189/21
f 95/233/52 94/232/52 103/186/52 104/185/52
f 98/222/48 93/234/48 99/173/48 102/172/48
f 33/221/18 74/81/18 110/85/18 106/220/18
f 30/110/63 73/109/63 109/124/63 108/217/63
f 73/109/26 32/108/27 107/125/34 109/124/33
f 31/94/21 30/93/21 108/123/21 105/122/21
f 32/92/31 33/91/31 106/119/31 107/118/31
f 74/81/18 31/84/18 105/86/18 110/85/18
f 97/235/64 96/236/64 111/237/64 112/238/64
f 109/239/65 112/240/65 111/241/65 108/242/65
f 100/243/66 101/244/66 114/245/66 113/246/66
f 113/247/67 114/248/67 73/249/67 30/250/67
f 73/251/68 114/252/69 112/253/70 109/254/68
f 97/255/71 112/253/70 114/252/69 101/256/71
f 122/257/72 134/258/72 133/259/72 118/260/72
f 35/261/73 28/262/73 137/263/73 140/264/73
f 121/265/74 131/266/74 128/267/74 116/268/74
f 140/269/75 137/270/75 136/271/75 142/272/75
f 120/273/76 125/274/76 130/275/76 123/276/76
f 142/277/77 136/278/77 132/279/77 119/280/77
f 119/280/78 132/279/78 124/281/78 144/282/78
f 132/283/8 130/284/8 125/285/8 124/286/8
f 137/287/8 133/288/8 134/289/8 136/290/8
f 124/286/8 125/285/8 126/291/8 127/292/8
f 127/292/8 126/291/8 128/293/8 129/294/8
f 29/41/8 131/295/8 135/296/8 28/42/8
f 129/294/8 128/293/8 131/295/8 29/41/8
f 28/42/8 135/296/8 133/288/8 137/287/8
f 136/290/8 134/289/8 130/284/8 132/283/8
f 143/297/79 129/298/79 29/299/79 39/300/79
f 117/301/80 135/302/80 131/266/80 121/265/80
f 115/303/81 126/304/81 125/274/81 120/273/81
f 146/305/82 127/306/82 129/307/82 143/308/82
f 118/309/83 133/310/83 135/302/83 117/301/83
f 116/311/84 128/312/84 126/313/84 115/314/84
f 144/282/85 124/281/85 127/315/85 146/316/85
f 123/317/86 130/318/86 134/258/86 122/257/86
f 144/319/14 120/320/14 123/321/14 119/322/14
f 119/322/14 123/321/14 122/323/14 142/324/14
f 146/325/14 115/326/14 120/320/14 144/319/14
f 143/327/14 116/328/14 115/326/14 146/325/14
f 39/75/14 121/329/14 116/328/14 143/327/14
f 35/77/14 117/330/14 121/329/14 39/75/14
f 140/331/14 118/332/14 117/330/14 35/77/14
f 142/324/14 122/323/14 118/332/14 140/331/14
f 120/320/14 115/326/14 116/328/14 121/329/14 117/330/14 118/332/14 122/323/14 123/321/14
f 164/333/87 31/84/88 34/83/88 166/334/89
f 194/335/18 167/336/19 42/87/19 105/86/18
f 145/337/90 138/338/90 139/339/90 141/340/90 119/280/90 144/282/90
f 34/341/91 35/261/91 140/264/91
f 141/340/92 142/277/92 119/280/92
f 143/342/8 146/343/8 144/344/8 119/345/8 142/346/8 165/347/8 140/348/8 35/99/8 39/98/8
f 143/342/93 39/98/93 38/106/93
f 144/282/94 146/316/94 145/337/94
f 146/305/63 143/308/63 38/111/63 30/110/63 163/349/63 138/350/63 145/351/63
f 166/334/95 165/352/95 142/353/95 141/354/95
f 192/355/21 158/356/96 147/357/21 191/358/21
f 193/359/97 179/360/98 158/361/99 192/362/100
f 168/363/37 169/364/38 46/130/38 44/129/37
f 167/336/19 168/363/37 44/129/37 42/87/19
f 158/356/96 148/365/21 147/357/21
f 169/364/38 170/366/39 48/133/39 46/130/38
f 158/356/96 149/367/21 148/365/21
f 158/356/96 150/368/21 149/367/21
f 171/369/40 172/370/41 52/142/41 50/141/40
f 170/366/39 171/369/40 50/141/40 48/133/39
f 158/356/96 151/371/21 150/368/21
f 158/356/96 153/372/21 152/373/21
f 158/356/96 152/373/21 151/371/21
f 172/370/41 173/374/42 54/150/42 52/142/41
f 174/375/43 175/376/44 58/154/44 56/153/43
f 173/374/42 174/375/43 56/153/43 54/150/42
f 158/356/96 154/377/21 153/372/21
f 158/356/96 155/378/21 154/377/21
f 175/376/44 176/379/45 60/160/45 58/154/44
f 158/356/96 156/380/21 155/378/21
f 177/381/46 178/382/47 65/165/47 63/164/46
f 176/379/45 177/381/46 63/164/46 60/160/45
f 158/356/96 157/383/21 156/380/21
f 158/356/96 159/384/21 157/383/21
f 188/385/48 182/386/48 72/174/48 99/173/48
f 178/387/47 180/388/49 68/178/49 65/177/47
f 158/356/96 160/389/101 159/384/21
f 181/390/51 71/184/51 72/183/51 182/391/51
f 190/392/102 162/393/102 161/394/102 189/395/102
f 187/396/53 181/397/53 162/398/53 190/399/53
f 100/197/53 71/198/53 181/397/53 187/396/53
f 162/400/51 181/390/51 182/391/51 161/401/51
f 159/402/47 160/403/54 180/388/49 178/387/47
f 189/404/48 161/405/48 182/386/48 188/385/48
f 156/406/45 157/407/46 177/381/46 176/379/45
f 157/407/46 159/408/47 178/382/47 177/381/46
f 155/409/44 156/406/45 176/379/45 175/376/44
f 153/410/42 154/411/43 174/375/43 173/374/42
f 154/411/43 155/409/44 175/376/44 174/375/43
f 152/412/41 153/410/42 173/374/42 172/370/41
f 150/413/39 151/414/40 171/369/40 170/366/39
f 151/414/40 152/412/41 172/370/41 171/369/40
f 149/415/38 150/413/39 170/366/39 169/364/38
f 147/416/19 148/417/37 168/363/37 167/336/19
f 148/417/37 149/415/38 169/364/38 168/363/37
f 108/217/103 62/218/103 179/360/98 193/359/97
f 34/83/95 140/418/95 165/352/95 166/334/95
f 191/419/18 147/416/19 167/336/19 194/335/18
f 139/420/104 164/333/87 166/334/89 141/354/104
f 160/403/54 183/421/48 186/422/48 180/388/49
f 62/224/105 96/227/105 185/423/106 179/424/107
f 179/424/107 185/423/106 184/425/108 158/426/109
f 158/356/96 184/427/110 183/428/110 160/389/101
f 180/388/49 186/422/48 93/234/48 68/178/49
f 183/421/48 189/404/48 188/385/48 186/422/48
f 96/227/53 100/197/53 187/396/53 185/423/53
f 185/423/106 187/396/53 190/399/53 184/425/108
f 184/427/110 190/392/102 189/395/102 183/428/110
f 186/422/48 188/385/48 99/173/48 93/234/48
f 139/420/18 191/419/18 194/335/18 164/333/18
f 30/110/63 108/217/63 193/359/63 163/349/63
f 163/349/63 193/359/97 192/362/100 138/350/63
f 138/338/21 192/355/21 191/358/21 139/339/21
f 164/333/18 194/335/18 105/86/18 31/84/18
f 185/429/64 195/430/64 111/237/64 96/236/64
f 193/431/65 108/242/65 111/241/65 195/432/65
f 100/243/66 113/246/66 196/433/66 187/434/66
f 113/247/67 30/250/67 163/435/67 196/436/67
f 163/437/111 193/438/111 195/439/112 196/440/113
f 185/441/114 187/442/114 196/440/113 195/439/112
