# Blender 4.4.3
# www.blender.org
mtllib Slingshot.mtl
o Cylinder
v 3.377158 5.644222 2.789888
v 3.377158 -1.763235 2.789888
v 3.572248 5.644222 2.770673
v 3.572248 -1.763235 2.770673
v 3.759841 5.644222 2.713768
v 3.759841 -1.763235 2.713768
v 3.932728 5.644222 2.621358
v 3.932728 -1.763235 2.621358
v 4.084265 5.644222 2.496995
v 4.084265 -1.763235 2.496995
v 4.208629 5.644222 2.345458
v 4.208629 -1.763235 2.345458
v 4.301038 5.644222 2.172571
v 4.301038 -1.763235 2.172571
v 4.357944 5.644222 1.984978
v 4.357944 -1.763235 1.984978
v 4.377158 5.644222 1.789888
v 4.377158 -1.763235 1.789888
v 4.357944 5.644222 1.594798
v 4.357944 -1.763235 1.594798
v 4.301038 5.644222 1.407205
v 4.301038 -1.763235 1.407205
v 4.208629 5.644222 1.234318
v 4.208629 -1.763235 1.234318
v 4.084265 5.644222 1.082781
v 4.084265 -1.763235 1.082781
v 3.932728 5.644222 0.958418
v 3.932728 -1.763235 0.958418
v 3.759841 5.644222 0.866008
v 3.759841 -1.763235 0.866008
v 3.572248 5.644222 0.809103
v 3.572248 -1.763235 0.809103
v 3.377158 5.644222 0.789888
v 3.377158 -1.763235 0.789888
v 6.606650 9.262163 2.770671
v 6.794243 9.262163 2.713765
v 6.967131 9.262163 2.621356
v 7.118667 9.262163 2.496992
v 7.243030 9.262163 2.345456
v 7.335440 9.262163 2.172570
v 7.392345 9.262163 1.984976
v 7.411560 9.262163 1.789886
v 7.392345 9.262163 1.594795
v 7.335440 9.262163 1.407202
v 7.243030 9.262163 1.234315
v 7.118667 9.262163 1.082779
v 6.967131 9.262163 0.958416
v 6.794243 9.262163 0.866006
v 6.606650 9.262163 0.809100
v 6.606650 9.916868 2.770671
v 6.794243 9.916868 2.713765
v 6.967131 9.916868 2.621355
v 7.118667 9.916868 2.496992
v 7.243030 9.916868 2.345456
v 7.335440 9.916868 2.172569
v 7.392345 9.916868 1.984976
v 7.411560 9.916868 1.789886
v 7.392345 9.916868 1.594795
v 7.335440 9.916868 1.407202
v 7.243030 9.916868 1.234315
v 7.118667 9.916868 1.082779
v 6.967131 9.916868 0.958416
v 6.794243 9.916868 0.866006
v 6.606650 9.916868 0.809100
v 6.475705 9.262163 3.128006
v 6.668512 9.262163 3.092580
v 6.475705 9.916868 3.128006
v 6.668512 9.916868 3.092580
v 6.305365 9.262163 3.468328
v 6.500935 9.262163 3.454834
v 6.305365 9.916868 3.468328
v 6.500935 9.916868 3.454834
v 6.097795 9.262163 3.787308
v 6.293639 9.262163 3.795918
v 6.097795 9.916868 3.787308
v 6.293639 9.916868 3.795918
v 5.855634 9.262163 4.080894
v 6.049264 9.262163 4.111496
v 5.855634 9.916868 4.080894
v 6.049264 9.916868 4.111496
v 5.581961 9.262163 4.345352
v 5.770916 9.262163 4.397557
v 5.581961 9.916868 4.345352
v 5.770916 9.916868 4.397557
v 5.280254 9.262163 4.577318
v 5.462132 9.262163 4.650465
v 5.280254 9.916868 4.577318
v 5.462132 9.916868 4.650465
v 4.954352 9.262163 4.773846
v 5.126839 9.262163 4.867002
v 4.954352 9.916868 4.773846
v 5.126839 9.916868 4.867002
v 4.608398 9.262163 4.932433
v 4.769300 9.262163 5.044415
v 4.608398 9.916868 4.932433
v 4.769300 9.916868 5.044415
v 4.246789 9.262163 5.051066
v 4.394063 9.262163 5.180450
v 4.246789 9.916868 5.051066
v 4.394063 9.916868 5.180450
v 3.874125 9.262163 5.128237
v 4.005895 9.262163 5.273377
v 3.874125 9.916868 5.128237
v 4.005895 9.916868 5.273377
v 3.495140 9.262163 5.162961
v 3.609733 9.262163 5.322014
v 3.495140 9.916868 5.162961
v 3.609733 9.916868 5.322014
v 3.114656 9.262163 5.154800
v 3.210614 9.262163 5.325744
v 3.114656 9.916868 5.154800
v 3.210614 9.916868 5.325744
v 3.182068 5.644222 2.770673
v 3.182068 -1.763235 2.770673
v 2.994475 5.644222 2.713768
v 2.994475 -1.763235 2.713768
v 2.821589 5.644222 2.621358
v 2.821589 -1.763235 2.621358
v 2.670051 5.644222 2.496995
v 2.670051 -1.763235 2.496995
v 2.545688 5.644222 2.345458
v 2.545688 -1.763235 2.345458
v 2.453279 5.644222 2.172571
v 2.453279 -1.763235 2.172571
v 2.396373 5.644222 1.984978
v 2.396373 -1.763235 1.984978
v 2.377158 5.644222 1.789888
v 2.377158 -1.763235 1.789888
v 2.396373 5.644222 1.594798
v 2.396373 -1.763235 1.594798
v 2.453279 5.644222 1.407205
v 2.453279 -1.763235 1.407205
v 2.545688 5.644222 1.234318
v 2.545688 -1.763235 1.234318
v 2.670051 5.644222 1.082781
v 2.670051 -1.763235 1.082781
v 2.821589 5.644222 0.958418
v 2.821589 -1.763235 0.958418
v 2.994475 5.644222 0.866008
v 2.994475 -1.763235 0.866008
v 3.182068 5.644222 0.809103
v 3.182068 -1.763235 0.809103
v 0.147666 9.262163 2.770671
v -0.039927 9.262163 2.713765
v -0.212814 9.262163 2.621356
v -0.364350 9.262163 2.496992
v -0.488713 9.262163 2.345456
v -0.581123 9.262163 2.172570
v -0.638028 9.262163 1.984976
v -0.657243 9.262163 1.789886
v -0.638028 9.262163 1.594795
v -0.581123 9.262163 1.407202
v -0.488713 9.262163 1.234315
v -0.364350 9.262163 1.082779
v -0.212814 9.262163 0.958416
v -0.039927 9.262163 0.866006
v 0.147666 9.262163 0.809100
v 0.147666 9.916868 2.770671
v -0.039927 9.916868 2.713765
v -0.212814 9.916868 2.621355
v -0.364350 9.916868 2.496992
v -0.488713 9.916868 2.345456
v -0.581123 9.916868 2.172569
v -0.638028 9.916868 1.984976
v -0.657243 9.916868 1.789886
v -0.638028 9.916868 1.594795
v -0.581123 9.916868 1.407202
v -0.488713 9.916868 1.234315
v -0.364350 9.916868 1.082779
v -0.212814 9.916868 0.958416
v -0.039927 9.916868 0.866006
v 0.147666 9.916868 0.809100
v 0.278611 9.262163 3.128006
v 0.085804 9.262163 3.092580
v 0.278611 9.916868 3.128006
v 0.085804 9.916868 3.092580
v 0.448952 9.262163 3.468328
v 0.253382 9.262163 3.454834
v 0.448952 9.916868 3.468328
v 0.253382 9.916868 3.454834
v 0.656523 9.262163 3.787308
v 0.460677 9.262163 3.795918
v 0.656523 9.916868 3.787308
v 0.460677 9.916868 3.795918
v 0.898683 9.262163 4.080894
v 0.705052 9.262163 4.111496
v 0.898683 9.916868 4.080894
v 0.705052 9.916868 4.111496
v 1.172356 9.262163 4.345352
v 0.983401 9.262163 4.397557
v 1.172356 9.916868 4.345352
v 0.983401 9.916868 4.397557
v 1.474062 9.262163 4.577318
v 1.292185 9.262163 4.650465
v 1.474062 9.916868 4.577318
v 1.292185 9.916868 4.650465
v 1.799964 9.262163 4.773846
v 1.627478 9.262163 4.867002
v 1.799964 9.916868 4.773846
v 1.627478 9.916868 4.867002
v 2.145918 9.262163 4.932433
v 1.985016 9.262163 5.044415
v 2.145918 9.916868 4.932433
v 1.985016 9.916868 5.044415
v 2.507527 9.262163 5.051066
v 2.360254 9.262163 5.180450
v 2.507527 9.916868 5.051066
v 2.360254 9.916868 5.180450
v 2.880192 9.262163 5.128237
v 2.748422 9.262163 5.273377
v 2.880192 9.916868 5.128237
v 2.748422 9.916868 5.273377
v 3.259176 9.262163 5.162961
v 3.144583 9.262163 5.322014
v 3.259176 9.916868 5.162961
v 3.144583 9.916868 5.322014
v 3.639660 9.262163 5.154800
v 3.543702 9.262163 5.325744
v 3.639660 9.916868 5.154800
v 3.543702 9.916868 5.325744
vn 0.0980 -0.0000 0.9952
vn 0.4714 -0.0000 0.8819
vn 0.7730 -0.0000 0.6344
vn 0.9569 -0.0000 0.2903
vn 0.9952 -0.0000 -0.0980
vn 0.8819 -0.0000 -0.4714
vn 0.6344 -0.0000 -0.7730
vn 0.2903 -0.0000 -0.9569
vn 0.4714 -0.0000 -0.8819
vn 0.0980 -0.0000 -0.9952
vn 0.9569 -0.0000 -0.2903
vn 0.2903 -0.0000 0.9569
vn 0.7730 -0.0000 -0.6344
vn 0.6344 -0.0000 0.7730
vn 0.8819 -0.0000 0.4714
vn 0.9952 -0.0000 0.0980
vn 0.4384 -0.3677 -0.8201
vn 0.4384 -0.3677 0.8201
vn 0.6486 -0.5440 0.5323
vn 0.6486 -0.5440 -0.5323
vn 0.2820 -0.2366 -0.9298
vn 0.2820 -0.2366 0.9298
vn 0.7640 -0.6408 -0.0752
vn 0.7640 -0.6408 0.0752
vn 0.7090 -0.5947 0.3790
vn 0.5601 -0.4697 -0.6824
vn 0.7463 -0.6259 -0.2264
vn 0.7463 -0.6259 0.2264
vn 0.5601 -0.4697 0.6824
vn 0.7090 -0.5947 -0.3790
vn -0.0000 -1.0000 -0.0000
vn -1.0000 -0.0000 -0.0000
vn -0.0000 1.0000 -0.0000
vn -0.7460 0.6659 -0.0000
vn 0.0977 -0.0819 0.9918
vn -0.8942 -0.0000 -0.4476
vn 0.9491 -0.0000 0.3150
vn -0.9389 -0.0000 -0.3441
vn 0.8546 -0.0000 0.5194
vn 0.9076 -0.0000 0.4198
vn -0.7714 -0.0000 -0.6363
vn -0.8382 -0.0000 -0.5454
vn -0.6949 -0.0000 -0.7191
vn 0.7907 -0.0000 0.6123
vn 0.6336 -0.0000 0.7736
vn 0.7167 -0.0000 0.6974
vn -0.5164 -0.0000 -0.8563
vn -0.6095 -0.0000 -0.7928
vn 0.5425 -0.0000 0.8400
vn 0.3408 -0.0000 0.9401
vn 0.4445 -0.0000 0.8958
vn -0.4167 -0.0000 -0.9090
vn -0.2028 -0.0000 -0.9792
vn -0.3117 -0.0000 -0.9502
vn 0.1219 -0.0000 0.9925
vn 0.2328 -0.0000 0.9725
vn -0.0912 -0.0000 -0.9958
vn -0.8720 -0.0000 0.4895
vn 0.0214 -0.0000 -0.9998
vn 0.0093 -0.0000 1.0000
vn 0.0977 -0.0819 -0.9918
vn -0.0980 -0.0000 0.9952
vn -0.4714 -0.0000 0.8819
vn -0.7730 -0.0000 0.6344
vn -0.9569 -0.0000 0.2903
vn -0.9952 -0.0000 -0.0980
vn -0.8819 -0.0000 -0.4714
vn -0.6344 -0.0000 -0.7730
vn -0.2903 -0.0000 -0.9569
vn -0.4714 -0.0000 -0.8819
vn -0.0980 -0.0000 -0.9952
vn -0.9569 -0.0000 -0.2903
vn -0.2903 -0.0000 0.9569
vn -0.7730 -0.0000 -0.6344
vn -0.6344 -0.0000 0.7730
vn -0.8819 -0.0000 0.4714
vn -0.9952 -0.0000 0.0980
vn -0.4384 -0.3677 -0.8201
vn -0.4384 -0.3677 0.8201
vn -0.6486 -0.5440 0.5323
vn -0.6486 -0.5440 -0.5323
vn -0.2820 -0.2366 -0.9298
vn -0.2820 -0.2366 0.9298
vn -0.7640 -0.6408 -0.0753
vn -0.7640 -0.6408 0.0753
vn -0.7090 -0.5947 0.3790
vn -0.5601 -0.4697 -0.6824
vn -0.7463 -0.6259 -0.2264
vn -0.7463 -0.6259 0.2264
vn -0.5601 -0.4697 0.6824
vn -0.7090 -0.5947 -0.3790
vn 1.0000 -0.0000 -0.0000
vn 0.7460 0.6659 -0.0000
vn -0.0977 -0.0819 0.9918
vn 0.8942 -0.0000 -0.4476
vn -0.9491 -0.0000 0.3150
vn 0.9389 -0.0000 -0.3441
vn -0.8546 -0.0000 0.5194
vn -0.9076 -0.0000 0.4199
vn 0.7714 -0.0000 -0.6363
vn 0.8382 -0.0000 -0.5454
vn 0.6949 -0.0000 -0.7191
vn -0.7907 -0.0000 0.6123
vn -0.6336 -0.0000 0.7736
vn -0.7167 -0.0000 0.6974
vn 0.5164 -0.0000 -0.8563
vn 0.6095 -0.0000 -0.7928
vn -0.5425 -0.0000 0.8400
vn -0.3408 -0.0000 0.9401
vn -0.4445 -0.0000 0.8958
vn 0.4167 -0.0000 -0.9090
vn 0.2028 -0.0000 -0.9792
vn 0.3117 -0.0000 -0.9502
vn -0.1219 -0.0000 0.9925
vn -0.2328 -0.0000 0.9725
vn 0.0912 -0.0000 -0.9958
vn 0.8720 -0.0000 0.4895
vn -0.0214 -0.0000 -0.9998
vn -0.0093 -0.0000 1.0000
vn -0.0977 -0.0819 -0.9918
vt 0.068559 0.995947
vt 0.221499 0.414470
vt 0.236580 0.418523
vt 0.083640 1.000000
vt 0.038049 0.988011
vt 0.190989 0.406534
vt 0.206105 0.410422
vt 0.053165 0.991899
vt 0.010946 0.981301
vt 0.163886 0.399824
vt 0.176734 0.402955
vt 0.023794 0.984432
vt 0.919431 0.887065
vt 0.902178 0.425510
vt 0.916985 0.428918
vt 0.934237 0.890473
vt 0.887864 0.886131
vt 0.870611 0.424576
vt 0.886520 0.424043
vt 0.903772 0.885599
vt 0.857728 0.893035
vt 0.840475 0.431479
vt 0.855064 0.427087
vt 0.872316 0.888642
vt 0.437831 0.981210
vt 0.278783 0.401391
vt 0.289764 0.398705
vt 0.448812 0.978523
vt 0.410718 0.988217
vt 0.251670 0.408398
vt 0.265921 0.404664
vt 0.424969 0.984483
vt 0.395628 0.992267
vt 0.236580 0.412449
vt 0.844658 0.899140
vt 0.827405 0.437585
vt 0.000000 0.978736
vt 0.152940 0.397260
vt 0.424969 0.057206
vt 0.437831 0.053933
vt 0.038049 0.060668
vt 0.053164 0.064556
vt 0.941820 0.440968
vt 0.930370 0.434138
vt 0.941703 0.050889
vt 0.953153 0.057719
vt 0.838739 0.054336
vt 0.851808 0.048230
vt 0.410718 0.060940
vt 0.068559 0.068604
vt 0.881944 0.041327
vt 0.897853 0.040794
vt 0.913511 0.042260
vt 0.928318 0.045669
vt 0.816357 0.445169
vt 0.827690 0.061920
vt 0.866397 0.043838
vt 0.023794 0.057089
vt 0.837214 0.013541
vt 0.850283 0.007436
vt 0.037311 0.005696
vt 0.051567 0.009274
vt 0.448812 0.051247
vt 0.423774 0.002686
vt 0.434755 -0.000000
vt 0.010946 0.053958
vt 0.024464 0.002564
vt 0.410911 0.005959
vt -0.000000 0.051394
vt 0.013517 0.000000
vt 0.896328 -0.000000
vt 0.911986 0.001466
vt 0.926793 0.004874
vt 0.396661 0.009693
vt 0.880420 0.000533
vt 0.864872 0.003043
vt 0.066682 0.013162
vt 0.448812 0.518074
vt 0.452960 0.508477
vt 0.470034 0.534044
vt 0.464427 0.542612
vt 0.656939 0.082895
vt 0.657082 0.043236
vt 0.816357 0.043809
vt 0.816214 0.083468
vt 0.661739 0.033109
vt 0.669276 0.023788
vt 0.679404 0.015630
vt 0.691732 0.008950
vt 0.705788 0.004004
vt 0.721032 0.000982
vt 0.736876 -0.000000
vt 0.752713 0.001096
vt 0.767935 0.004228
vt 0.781955 0.009275
vt 0.794235 0.016044
vt 0.804303 0.024274
vt 0.811773 0.033649
vt 0.653962 0.476670
vt 0.816357 0.477255
vt 0.628042 0.050212
vt 0.627899 0.089871
vt 0.600233 0.098982
vt 0.600375 0.059323
vt 0.630956 0.039797
vt 0.479260 0.477255
vt 0.496334 0.502822
vt 0.566971 0.777333
vt 0.513831 0.776920
vt 0.513433 0.752802
vt 0.566573 0.753215
vt 0.484478 0.560108
vt 0.477483 0.567539
vt 0.567458 0.798861
vt 0.514318 0.798447
vt 0.601509 0.048752
vt 0.567458 0.477255
vt 0.620595 0.477774
vt 0.620995 0.499596
vt 0.567858 0.499077
vt 0.574434 0.070453
vt 0.573773 0.059861
vt 0.574292 0.110112
vt 0.496107 0.586339
vt 0.487813 0.592538
vt 0.621300 0.523743
vt 0.568162 0.523224
vt 0.504775 0.612402
vt 0.495288 0.617290
vt 0.513131 0.726400
vt 0.566271 0.726814
vt 0.550549 0.083462
vt 0.548102 0.072983
vt 0.566067 0.698464
vt 0.512927 0.698051
vt 0.512824 0.668113
vt 0.565964 0.668527
vt 0.510371 0.637967
vt 0.499811 0.641482
vt 0.529022 0.098182
vt 0.524820 0.087950
vt 0.568367 0.549388
vt 0.621505 0.549907
vt 0.621608 0.577755
vt 0.568471 0.577236
vt 0.510128 0.114428
vt 0.504224 0.104572
vt 0.512824 0.662707
vt 0.501325 0.664805
vt 0.499811 0.686963
vt 0.512103 0.686310
vt 0.508216 0.708474
vt 0.495288 0.707674
vt 0.512824 0.636969
vt 0.565964 0.637383
vt 0.494107 0.131993
vt 0.486577 0.122639
vt 0.566067 0.605428
vt 0.512927 0.605014
vt 0.513131 0.572654
vt 0.566271 0.573068
vt 0.481163 0.150652
vt 0.472101 0.141919
vt 0.621608 0.606934
vt 0.568471 0.606415
vt 0.568367 0.636553
vt 0.621505 0.637072
vt 0.621300 0.667786
vt 0.568162 0.667267
vt 0.471460 0.170170
vt 0.460983 0.162169
vt 0.501213 0.728918
vt 0.487813 0.726676
vt 0.566573 0.540715
vt 0.513433 0.540301
vt 0.513831 0.508366
vt 0.566971 0.508779
vt 0.491184 0.747382
vt 0.477483 0.743726
vt 0.465121 0.190299
vt 0.453362 0.183131
vt 0.449335 0.204538
vt 0.462228 0.210781
vt 0.462816 0.231356
vt 0.448955 0.226118
vt 0.620995 0.698687
vt 0.567858 0.698167
vt 0.478256 0.763631
vt 0.464427 0.758607
vt 0.462674 0.271015
vt 0.448812 0.265777
vt 0.620595 0.729380
vt 0.567458 0.728860
vt 0.462593 0.777458
vt 0.448812 0.771131
vt 0.514318 0.477255
vt 0.567458 0.477668
s 1
usemtl Material.001
f 4/1/1 3/2/1 1/3/1 2/4/1
f 8/5/2 7/6/2 5/7/2 6/8/2
f 12/9/3 11/10/3 9/11/3 10/12/3
f 16/13/4 15/14/4 13/15/4 14/16/4
f 20/17/5 19/18/5 17/19/5 18/20/5
f 24/21/6 23/22/6 21/23/6 22/24/6
f 28/25/7 27/26/7 25/27/7 26/28/7
f 32/29/8 31/30/8 29/31/8 30/32/8
f 30/32/9 29/31/9 27/26/9 28/25/9
f 34/33/10 33/34/10 31/30/10 32/29/10
f 22/24/11 21/23/11 19/18/11 20/17/11
f 6/8/12 5/7/12 3/2/12 4/1/12
f 26/35/13 25/36/13 23/22/13 24/21/13
f 10/12/14 9/11/14 7/6/14 8/5/14
f 14/37/15 13/38/15 11/10/15 12/9/15
f 18/20/16 17/19/16 15/14/16 16/13/16
f 27/26/17 29/31/17 48/39/17 47/40/17
f 5/7/18 7/6/18 37/41/18 36/42/18
f 9/43/19 11/44/19 39/45/19 38/46/19
f 23/22/20 25/36/20 46/47/20 45/48/20
f 29/31/21 31/30/21 49/49/21 48/39/21
f 3/2/22 5/7/22 36/42/22 35/50/22
f 17/19/23 19/18/23 43/51/23 42/52/23
f 15/14/24 17/19/24 42/52/24 41/53/24
f 11/44/25 13/15/25 40/54/25 39/45/25
f 25/36/26 27/55/26 47/56/26 46/47/26
f 19/18/27 21/23/27 44/57/27 43/51/27
f 13/15/28 15/14/28 41/53/28 40/54/28
f 7/6/29 9/11/29 38/58/29 37/41/29
f 21/23/30 23/22/30 45/48/30 44/57/30
f 45/48/13 46/47/13 61/59/13 60/60/13
f 37/41/14 38/58/14 53/61/14 52/62/14
f 46/63/7 47/40/7 62/64/7 61/65/7
f 38/58/3 39/66/3 54/67/3 53/61/3
f 47/40/9 48/39/9 63/68/9 62/64/9
f 39/66/15 40/69/15 55/70/15 54/67/15
f 41/53/16 42/52/16 57/71/16 56/72/16
f 40/54/4 41/53/4 56/72/4 55/73/4
f 48/39/8 49/49/8 64/74/8 63/68/8
f 42/52/5 43/51/5 58/75/5 57/71/5
f 43/51/11 44/57/11 59/76/11 58/75/11
f 36/42/2 37/41/2 52/62/2 51/77/2
f 44/57/6 45/48/6 60/60/6 59/76/6
f 35/78/31 36/79/31 66/80/31 65/81/31
f 35/82/32 50/83/32 64/84/32 49/85/32
f 50/83/33 51/86/33 52/87/33 53/88/33 54/89/33 55/90/33 56/91/33 57/92/33 58/93/33 59/94/33 60/95/33 61/96/33 62/97/33 63/98/33 64/84/33
f 1/99/34 35/82/34 49/85/34 33/100/34
f 3/2/35 35/50/35 1/3/35
f 67/101/36 65/102/36 69/103/36 71/104/36
f 51/86/33 50/83/33 67/101/33 68/105/33
f 36/79/37 51/106/37 68/107/37 66/80/37
f 50/83/38 35/82/38 65/102/38 67/101/38
f 70/108/39 72/109/39 76/110/39 74/111/39
f 65/81/31 66/80/31 70/112/31 69/113/31
f 66/114/40 68/115/40 72/109/40 70/108/40
f 68/105/33 67/101/33 71/104/33 72/116/33
f 75/117/41 73/118/41 77/119/41 79/120/41
f 72/116/33 71/104/33 75/121/33 76/122/33
f 71/104/42 69/103/42 73/123/42 75/121/42
f 69/113/31 70/112/31 74/124/31 73/125/31
f 79/120/43 77/119/43 81/126/43 83/127/43
f 73/125/31 74/124/31 78/128/31 77/129/31
f 74/111/44 76/110/44 80/130/44 78/131/44
f 76/122/33 75/121/33 79/132/33 80/133/33
f 82/134/45 84/135/45 88/136/45 86/137/45
f 77/129/31 78/128/31 82/138/31 81/139/31
f 78/131/46 80/130/46 84/135/46 82/134/46
f 80/133/33 79/132/33 83/140/33 84/141/33
f 87/142/47 85/143/47 89/144/47 91/145/47
f 84/141/33 83/140/33 87/146/33 88/147/33
f 83/127/48 81/126/48 85/143/48 87/142/48
f 81/139/31 82/138/31 86/148/31 85/149/31
f 89/150/31 90/151/31 94/152/31 93/153/31
f 85/149/31 86/148/31 90/151/31 89/150/31
f 86/137/49 88/136/49 92/154/49 90/155/49
f 88/147/33 87/146/33 91/156/33 92/157/33
f 94/158/50 96/159/50 100/160/50 98/161/50
f 90/155/51 92/154/51 96/159/51 94/158/51
f 92/157/33 91/156/33 95/162/33 96/163/33
f 91/145/52 89/144/52 93/164/52 95/165/52
f 99/166/53 97/167/53 101/168/53 103/169/53
f 96/163/33 95/162/33 99/170/33 100/171/33
f 95/165/54 93/164/54 97/167/54 99/166/54
f 93/153/31 94/152/31 98/172/31 97/173/31
f 102/174/55 104/175/55 108/176/55 106/177/55
f 97/173/31 98/172/31 102/178/31 101/179/31
f 98/161/56 100/160/56 104/175/56 102/174/56
f 100/171/33 99/170/33 103/180/33 104/181/33
f 108/182/33 107/183/33 111/184/33 112/185/33
f 104/181/33 103/180/33 107/183/33 108/182/33
f 103/169/57 101/168/57 105/186/57 107/187/57
f 101/179/31 102/178/31 106/188/31 105/189/31
f 109/190/58 110/191/58 112/185/58 111/184/58
f 107/187/59 105/186/59 109/192/59 111/193/59
f 105/189/31 106/188/31 110/194/31 109/195/31
f 106/177/60 108/176/60 112/196/60 110/197/60
f 33/34/61 49/49/61 31/30/61
f 114/1/62 2/4/62 1/3/62 113/2/62
f 118/5/63 116/8/63 115/7/63 117/6/63
f 122/9/64 120/12/64 119/11/64 121/10/64
f 126/13/65 124/16/65 123/15/65 125/14/65
f 130/17/66 128/20/66 127/19/66 129/18/66
f 134/21/67 132/24/67 131/23/67 133/22/67
f 138/25/68 136/28/68 135/27/68 137/26/68
f 142/29/69 140/32/69 139/31/69 141/30/69
f 140/32/70 138/25/70 137/26/70 139/31/70
f 34/33/71 142/29/71 141/30/71 33/34/71
f 132/24/72 130/17/72 129/18/72 131/23/72
f 116/8/73 114/1/73 113/2/73 115/7/73
f 136/35/74 134/21/74 133/22/74 135/36/74
f 120/12/75 118/5/75 117/6/75 119/11/75
f 124/37/76 122/9/76 121/10/76 123/38/76
f 128/20/77 126/13/77 125/14/77 127/19/77
f 137/26/78 155/40/78 156/39/78 139/31/78
f 115/7/79 144/42/79 145/41/79 117/6/79
f 119/43/80 146/46/80 147/45/80 121/44/80
f 133/22/81 153/48/81 154/47/81 135/36/81
f 139/31/82 156/39/82 157/49/82 141/30/82
f 113/2/83 143/50/83 144/42/83 115/7/83
f 127/19/84 150/52/84 151/51/84 129/18/84
f 125/14/85 149/53/85 150/52/85 127/19/85
f 121/44/86 147/45/86 148/54/86 123/15/86
f 135/36/87 154/47/87 155/56/87 137/55/87
f 129/18/88 151/51/88 152/57/88 131/23/88
f 123/15/89 148/54/89 149/53/89 125/14/89
f 117/6/90 145/41/90 146/58/90 119/11/90
f 131/23/91 152/57/91 153/48/91 133/22/91
f 153/48/74 168/60/74 169/59/74 154/47/74
f 145/41/75 160/62/75 161/61/75 146/58/75
f 154/63/68 169/65/68 170/64/68 155/40/68
f 146/58/64 161/61/64 162/67/64 147/66/64
f 155/40/70 170/64/70 171/68/70 156/39/70
f 147/66/76 162/67/76 163/70/76 148/69/76
f 149/53/77 164/72/77 165/71/77 150/52/77
f 148/54/65 163/73/65 164/72/65 149/53/65
f 156/39/69 171/68/69 172/74/69 157/49/69
f 150/52/66 165/71/66 166/75/66 151/51/66
f 151/51/72 166/75/72 167/76/72 152/57/72
f 144/42/63 159/77/63 160/62/63 145/41/63
f 152/57/67 167/76/67 168/60/67 153/48/67
f 143/78/31 173/81/31 174/80/31 144/79/31
f 143/82/92 157/85/92 172/84/92 158/83/92
f 158/83/33 172/84/33 171/98/33 170/97/33 169/96/33 168/95/33 167/94/33 166/93/33 165/92/33 164/91/33 163/90/33 162/89/33 161/88/33 160/87/33 159/86/33
f 1/99/93 33/100/93 157/85/93 143/82/93
f 113/2/94 1/3/94 143/50/94
f 175/101/95 179/104/95 177/103/95 173/102/95
f 159/86/33 176/105/33 175/101/33 158/83/33
f 144/79/96 174/80/96 176/107/96 159/106/96
f 158/83/97 175/101/97 173/102/97 143/82/97
f 178/108/98 182/111/98 184/110/98 180/109/98
f 173/81/31 177/113/31 178/112/31 174/80/31
f 174/114/99 178/108/99 180/109/99 176/115/99
f 176/105/33 180/116/33 179/104/33 175/101/33
f 183/117/100 187/120/100 185/119/100 181/118/100
f 180/116/33 184/122/33 183/121/33 179/104/33
f 179/104/101 183/121/101 181/123/101 177/103/101
f 177/113/31 181/125/31 182/124/31 178/112/31
f 187/120/102 191/127/102 189/126/102 185/119/102
f 181/125/31 185/129/31 186/128/31 182/124/31
f 182/111/103 186/131/103 188/130/103 184/110/103
f 184/122/33 188/133/33 187/132/33 183/121/33
f 190/134/104 194/137/104 196/136/104 192/135/104
f 185/129/31 189/139/31 190/138/31 186/128/31
f 186/131/105 190/134/105 192/135/105 188/130/105
f 188/133/33 192/141/33 191/140/33 187/132/33
f 195/142/106 199/145/106 197/144/106 193/143/106
f 192/141/33 196/147/33 195/146/33 191/140/33
f 191/127/107 195/142/107 193/143/107 189/126/107
f 189/139/31 193/149/31 194/148/31 190/138/31
f 197/150/31 201/153/31 202/152/31 198/151/31
f 193/149/31 197/150/31 198/151/31 194/148/31
f 194/137/108 198/155/108 200/154/108 196/136/108
f 196/147/33 200/157/33 199/156/33 195/146/33
f 202/158/109 206/161/109 208/160/109 204/159/109
f 198/155/110 202/158/110 204/159/110 200/154/110
f 200/157/33 204/163/33 203/162/33 199/156/33
f 199/145/111 203/165/111 201/164/111 197/144/111
f 207/166/112 211/169/112 209/168/112 205/167/112
f 204/163/33 208/171/33 207/170/33 203/162/33
f 203/165/113 207/166/113 205/167/113 201/164/113
f 201/153/31 205/173/31 206/172/31 202/152/31
f 210/174/114 214/177/114 216/176/114 212/175/114
f 205/173/31 209/179/31 210/178/31 206/172/31
f 206/161/115 210/174/115 212/175/115 208/160/115
f 208/171/33 212/181/33 211/180/33 207/170/33
f 216/182/33 220/185/33 219/184/33 215/183/33
f 212/181/33 216/182/33 215/183/33 211/180/33
f 211/169/116 215/187/116 213/186/116 209/168/116
f 209/179/31 213/189/31 214/188/31 210/178/31
f 217/190/117 219/184/117 220/185/117 218/191/117
f 215/187/118 219/193/118 217/192/118 213/186/118
f 213/189/31 217/195/31 218/194/31 214/188/31
f 214/177/119 218/197/119 220/196/119 216/176/119
f 33/34/120 141/30/120 157/49/120
f 2/4/31 114/1/31 116/8/31 118/5/31 120/12/31 122/9/31 124/37/31 126/13/31 128/20/31 130/17/31 132/24/31 134/21/31 136/35/31 138/25/31 140/32/31 142/29/31 34/33/31 32/29/31 30/32/31 28/25/31 26/28/31 24/21/31 22/24/31 20/17/31 18/20/31 16/13/31 14/16/31 12/9/31 10/12/31 8/5/31 6/8/31 4/1/31
